<?xml version="1.0" encoding="utf-8"?>
<!-- Generator: Adobe Illustrator 26.4.1, SVG Export Plug-In . SVG Version: 6.00 Build 0)  -->
<svg version="1.1" id="레이어_1" xmlns="http://www.w3.org/2000/svg" xmlns:xlink="http://www.w3.org/1999/xlink" x="0px"
	 y="0px" viewBox="0 0 135.31 218" style="enable-background:new 0 0 135.31 218;" xml:space="preserve">
<style type="text/css">
	.st0{fill:#FFFFFF;}
</style>
<path class="st0" d="M67.66,23c24.62,0,44.66,20.03,44.66,44.66v82.69c0,24.62-20.03,44.66-44.66,44.66
	C43.03,195,23,174.97,23,150.34V67.66C23,43.03,43.03,23,67.66,23 M67.66,0L67.66,0C30.29,0,0,30.29,0,67.66v82.69
	C0,187.71,30.29,218,67.66,218h0c37.36,0,67.66-30.29,67.66-67.66V67.66C135.31,30.29,105.02,0,67.66,0L67.66,0z"/>
<path class="st0" d="M67.66,55c-6.63,0-12,5.37-12,12v21c0,6.63,5.37,12,12,12s12-5.37,12-12V67C79.66,60.37,74.28,55,67.66,55
	L67.66,55z"/>
</svg>
