<?xml version="1.0" encoding="utf-8"?>
<!-- Generator: Adobe Illustrator 26.4.1, SVG Export Plug-In . SVG Version: 6.00 Build 0)  -->
<svg version="1.1" id="Layer_1" xmlns="http://www.w3.org/2000/svg" xmlns:xlink="http://www.w3.org/1999/xlink" x="0px" y="0px"
	 viewBox="0 0 568.31 176.68" style="enable-background:new 0 0 568.31 176.68;" xml:space="preserve">
<style type="text/css">
	.st0{fill:#173AFF;}
	.st1{fill-rule:evenodd;clip-rule:evenodd;fill:#173AFF;}
</style>
<g>
	<path class="st0" d="M32.32,151.95c-6.13-0.1-12.13-0.75-17.84-3.1c-9.07-3.73-13.55-10.75-14.35-20.37
		c-0.46-5.62,0.41-11.11,1.52-16.59c3.43-16.97,6.8-33.95,10.18-50.93c0.74-3.7,1.04-4.39,4.62-4.68c3.93-0.32,7.92-0.11,11.87,0.11
		c2.37,0.13,2.81,1.42,2.38,3.55c-3.7,18.14-7.3,36.3-10.89,54.46c-0.7,3.54-1.21,7.11-0.6,10.77c0.97,5.82,4.51,9.68,10.25,10.89
		c4.34,0.91,8.65,0.73,12.88-0.6c8.06-2.52,12.94-8.28,15.38-16.11c1.43-4.58,2.23-9.36,3.18-14.08c3.06-15.2,6.06-30.42,9.07-45.63
		c0.33-1.65,1.16-2.78,2.84-3.09c4.46-0.83,8.94-0.91,13.4-0.09c2.28,0.42,2.55,1.06,2.1,3.32c-3.67,18.53-7.32,37.06-11.03,55.58
		c-1.42,7.08-3.79,13.79-8.01,19.73c-5.65,7.95-13.34,12.85-22.7,15.2c-1.59,0.4-3.21,0.77-4.84,0.94
		C38.59,151.52,35.45,151.7,32.32,151.95z"/>
	<path class="st0" d="M249.1,140.53c-0.49,0.52-0.99,1.03-1.47,1.56c-4.59,4.96-10.23,8.17-16.8,9.41
		c-3.52,0.67-7.18,0.56-10.69-0.54c-6.02-1.87-9.78-6.04-11.5-11.99c-0.79-2.72-1.29-5.6-1.42-8.43c-0.62-12.9,2.23-25,8.97-36.06
		c3.95-6.48,9.31-11.42,16.56-13.97c5.07-1.78,10.3-2,15.51-0.85c4.47,0.98,8.07,3.53,11.08,6.94c0.49,0.55,0.99,1.09,1.52,1.68
		c1.19-0.74,0.98-1.94,1.19-2.88c0.97-4.33,1.06-4.41,5.51-5.1c2.71-0.42,5.38-0.27,8.05,0.18c2.08,0.35,2.6,1.14,2.17,3.29
		c-3.44,17.35-6.88,34.71-10.33,52.06c-2.43,12.25-4.9,24.5-7.25,36.77c-0.41,2.11-1.49,3.17-3.48,3.53
		c-3.87,0.71-7.76,0.75-11.62,0.11c-2.82-0.46-3.2-1.21-2.63-4.06c1.05-5.31,2.04-10.64,3.22-15.93c1.05-4.7,2.32-9.34,3.49-14.02
		c0.12-0.48,0.18-0.98,0.27-1.48C249.33,140.68,249.21,140.6,249.1,140.53z M225.08,125.07c0.42,2.35,0.64,4.76,1.31,7.04
		c0.73,2.49,2.59,4.07,5.18,4.43c2.01,0.28,4.02,0.13,5.96-0.69c2.38-1.01,4.48-2.43,6.36-4.18c3.92-3.65,6.67-8.1,8.64-13.06
		c1.96-4.93,2.61-10.18,3.71-15.32c0.14-0.63-0.12-1.58-0.55-2.07c-1.53-1.74-3.02-3.6-4.86-4.94c-3.91-2.86-10.24-3.08-14.51,0.29
		c-2.41,1.91-4.22,4.27-5.63,6.95C227.13,110.23,225.58,117.46,225.08,125.07z"/>
	<path class="st0" d="M373.07,151.73c-4.6,0.13-9.12-0.38-13.47-1.99c-8.26-3.06-12.97-9.16-14.04-17.77
		c-1.62-13.17,1.07-25.52,8.48-36.61c6.05-9.06,14.61-14.34,25.36-15.85c6.81-0.96,13.62-0.85,20.21,1.44
		c8.3,2.87,13.21,8.83,14.38,17.47c1.76,12.91-0.69,25.12-7.77,36.11c-7.15,11.09-17.5,16.79-30.67,17.21
		C374.72,151.76,373.9,151.73,373.07,151.73z M363.67,123.69c0,1.28-0.08,2.57,0.01,3.84c0.39,5.11,2.94,8.47,7.37,9.71
		c2.87,0.8,5.76,0.78,8.64-0.07c4.74-1.4,8.09-4.57,10.51-8.7c4.71-8.03,6.58-16.76,5.64-26.04c-0.48-4.73-3.14-7.85-7.38-8.95
		c-4.51-1.17-8.77-0.51-12.7,2.03c-3.37,2.18-5.76,5.24-7.55,8.8C365.15,110.4,363.66,116.88,363.67,123.69z"/>
	<path class="st0" d="M117.18,92.78c0.49-0.61,0.99-1.21,1.48-1.82c4.89-6.08,11.09-10.1,18.76-11.57c3.7-0.71,7.47-0.66,11.13,0.46
		c6.16,1.87,9.52,6.21,10.7,12.44c0.96,5.07,0.35,10.08-0.62,15.04c-2.57,13.15-5.3,26.26-7.86,39.41
		c-0.42,2.15-1.58,3.16-3.52,3.48c-4.03,0.66-8.07,0.69-12.09,0.02c-2.18-0.36-2.63-1.21-2.12-3.82c0.92-4.73,1.91-9.44,2.85-14.16
		c1.66-8.26,3.36-16.52,4.92-24.8c0.4-2.12,0.53-4.36,0.37-6.51c-0.37-4.91-3.01-7.69-9.34-5.91c-3.03,0.85-5.49,2.76-7.69,4.95
		c-5.13,5.14-8.43,11.3-9.89,18.43c-1.85,9.07-3.63,18.16-5.44,27.24c-0.07,0.37-0.21,0.73-0.23,1.1c-0.15,2.22-1.58,3.24-3.52,3.45
		c-2.75,0.29-5.53,0.38-8.3,0.45c-1.19,0.03-2.39-0.19-3.58-0.38c-2.27-0.35-2.84-1.16-2.4-3.39c1.84-9.23,3.71-18.45,5.55-27.68
		c2.31-11.59,4.61-23.18,6.91-34.77c0.61-3.06,1.35-3.82,4.47-3.97c2.54-0.12,5.1-0.14,7.64-0.01c2.85,0.14,3.38,0.9,2.89,3.75
		c-0.33,1.93-0.78,3.84-1.15,5.76c-0.16,0.85-0.27,1.71-0.4,2.57C116.85,92.62,117.02,92.7,117.18,92.78z"/>
	<path class="st0" d="M448.57,92.74c0.46-0.55,0.92-1.09,1.37-1.65c4.92-6.17,11.17-10.26,18.92-11.7c4.15-0.77,8.37-0.69,12.4,0.92
		c5.46,2.17,8.32,6.39,9.37,12.05c0.95,5.07,0.33,10.08-0.64,15.04c-2.55,13-5.25,25.96-7.78,38.96c-0.45,2.33-0.89,3.47-4.32,3.96
		c-3.51,0.49-7.01,0.54-10.54,0.05c-2.91-0.41-3.51-1.1-2.94-3.99c1.21-6.13,2.47-12.25,3.7-18.37c1.38-6.86,2.82-13.71,4.08-20.6
		c0.39-2.12,0.52-4.36,0.35-6.51c-0.42-5.16-3.31-7.47-9.18-5.9c-3.12,0.83-5.64,2.79-7.89,5.05c-5.12,5.15-8.41,11.32-9.86,18.45
		c-1.84,9.08-3.63,18.16-5.44,27.24c-0.07,0.37-0.21,0.73-0.24,1.1c-0.16,2.24-1.64,3.13-3.57,3.42c-3.95,0.59-7.92,0.69-11.88,0.04
		c-2.23-0.37-2.78-1.18-2.33-3.45c3.79-18.97,7.58-37.94,11.37-56.91c0.38-1.92,0.73-3.84,1.11-5.76c0.51-2.58,1.3-3.49,3.81-3.64
		c2.91-0.17,5.84-0.17,8.76-0.02c2.22,0.11,2.76,0.89,2.44,3.09c-0.31,2.08-0.78,4.14-1.17,6.21c-0.17,0.91-0.29,1.83-0.44,2.74
		C448.23,92.61,448.4,92.67,448.57,92.74z"/>
	<path class="st0" d="M526.95,92.71c0.46-0.56,0.92-1.12,1.38-1.68c4.93-6.16,11.2-10.22,18.95-11.67
		c3.62-0.68,7.33-0.63,10.91,0.46c6.24,1.89,9.64,6.27,10.8,12.61c0.93,5.08,0.3,10.07-0.67,15.04
		c-2.57,13.07-5.23,26.12-7.86,39.18c-0.5,2.51-1.29,3.27-3.85,3.63c-3.73,0.53-7.46,0.6-11.21,0.04c-2.55-0.38-3.15-1.06-2.69-3.59
		c0.73-4,1.57-7.98,2.37-11.96c1.82-9.08,3.7-18.14,5.42-27.24c0.41-2.19,0.56-4.51,0.37-6.73c-0.47-5.42-3.62-7.24-9.02-5.87
		c-3.13,0.8-5.66,2.74-7.92,4.99c-5.14,5.13-8.47,11.28-9.93,18.41c-1.86,9.07-3.65,18.16-5.44,27.24
		c-0.76,3.87-1.39,4.37-5.25,4.82c-3.23,0.38-6.43,0.43-9.64-0.05c-0.59-0.09-1.19-0.15-1.75-0.34c-1.37-0.48-1.67-0.93-1.52-2.35
		c0.1-0.9,0.3-1.78,0.48-2.67c4.05-20.3,8.09-40.6,12.14-60.9c0.5-2.52,1.34-3.42,3.88-3.57c2.84-0.16,5.7-0.16,8.53-0.02
		c2.43,0.12,2.95,0.91,2.56,3.41c-0.32,2.01-0.78,3.99-1.16,5.99c-0.16,0.87-0.26,1.75-0.39,2.63
		C526.61,92.58,526.78,92.65,526.95,92.71z"/>
	<path class="st0" d="M308.83,151.93c-2.34-0.33-5.2-0.53-7.95-1.16c-8.12-1.87-12.98-7.12-14.84-15.21
		c-1.11-4.83-1.06-9.69-0.54-14.61c0.8-7.58,2.84-14.76,6.32-21.54c3.56-6.94,8.46-12.58,15.38-16.33c4.71-2.55,9.72-3.83,15.06-4
		c4.85-0.15,9.6,0.32,14.09,2.23c1.64,0.7,3.17,1.69,4.66,2.68c1.13,0.75,1.57,1.91,1.56,3.32c-0.03,3.14-0.73,6.12-1.94,9
		c-0.23,0.55-0.56,1.07-0.92,1.55c-1.14,1.54-2.3,1.75-3.87,0.68c-0.87-0.59-1.65-1.3-2.5-1.93c-6.17-4.55-14.89-4.34-20.71,1.65
		c-2.29,2.36-3.97,5.08-5.21,8.11c-2.24,5.48-3.61,11.18-3.86,17.1c-0.08,1.86,0.09,3.79,0.49,5.61c1.17,5.32,4.26,7.57,9.53,7.9
		c4.72,0.3,9.03-1.09,13.03-3.54c1.47-0.9,2.88-1.92,4.41-2.71c1.78-0.91,2.58-0.45,2.62,1.53c0.08,4.05-0.81,7.93-2.44,11.62
		c-0.67,1.51-1.98,2.43-3.35,3.25c-3.59,2.13-7.49,3.43-11.6,4.06C313.98,151.54,311.66,151.66,308.83,151.93z"/>
	<path class="st0" d="M190.41,80.15c2.39,0.14,4.12,0.16,5.83,0.35c2.85,0.32,3.55,1.24,3,4.02c-1.38,7.09-2.82,14.17-4.22,21.25
		c-2.62,13.21-5.23,26.43-7.84,39.65c-0.09,0.44-0.2,0.88-0.26,1.33c-0.36,2.49-1.27,3.07-3.74,3.49
		c-3.86,0.66-7.76,0.65-11.65,0.05c-2.27-0.35-2.85-1.16-2.41-3.38c3.18-16.09,6.37-32.19,9.57-48.28c0.95-4.8,1.97-9.58,2.83-14.4
		c0.34-1.89,1.24-3.06,3.09-3.35C186.75,80.53,188.91,80.33,190.41,80.15z"/>
</g>
<g>
	
		<rect x="176.86" y="28.37" transform="matrix(0.7071 -0.7071 0.7071 0.7071 24.4234 151.033)" class="st0" width="35.32" height="35.32"/>
	<polygon class="st1" points="191.16,35.83 156.66,33.83 191.16,31.83 	"/>
	<polygon class="st1" points="191.16,39.83 156.66,37.83 191.16,35.83 	"/>
	<polygon class="st1" points="191.16,43.83 156.66,41.83 191.16,39.83 	"/>
	<polygon class="st1" points="191.16,47.83 156.66,45.83 191.16,43.83 	"/>
	<polygon class="st1" points="191.16,51.83 156.66,49.83 191.16,47.83 	"/>
	<polygon class="st1" points="191.16,55.83 156.66,53.83 191.16,51.83 	"/>
	<polygon class="st1" points="191.16,60.33 156.66,58.33 191.16,56.33 	"/>
	<path class="st1" d="M227.92,6.84l-4.57,6.86l-1.27-2.97L227.92,6.84z M220.84,11.57l1.54,3.61l-3.09,4.63l-2.39-5.62L220.84,11.57
		z M215.64,15.03l2.66,6.25l-2.92,4.38l-3.47-8.15L215.64,15.03z M210.66,18.34l3.74,8.79l-2.77,4.16l-4.51-10.59L210.66,18.34z
		 M205.87,21.54l4.78,11.23l-0.89,1.34l-9.1-9.1L205.87,21.54z"/>
	<polygon class="st1" points="191.16,31.33 156.66,29.33 191.16,27.33 	"/>
	<polygon class="st1" points="191.16,64.33 156.66,62.33 191.16,60.33 	"/>
</g>
</svg>
